REM DIRINDEX 1\2,1\3,1\4,1\5,1\6
REM DIRNAME folder01,folder02,folder03,folder04,folder05,folder06
TITLE ""
FILE "CD2-63.mp3" MP3
  TRACK 01 AUDIO
    TITLE "6:cjc091_2703"
    INDEX 01 00:00:00
  TRACK 02 AUDIO
    TITLE "0:"
    INDEX 01 00:02:16
  TRACK 03 AUDIO
    TITLE "2:cjc091_2704"
    INDEX 01 00:03:43
  TRACK 04 AUDIO
    TITLE "0:"
    INDEX 01 00:04:58
  TRACK 05 AUDIO
    TITLE "3:cjc091_2705"
    INDEX 01 00:05:09
  TRACK 06 AUDIO
    TITLE "0:"
    INDEX 01 00:07:02
  TRACK 07 AUDIO
    TITLE "4:cjc091_2706"
    INDEX 01 00:07:19
  TRACK 08 AUDIO
    TITLE "0:"
    INDEX 01 00:11:74
  TRACK 09 AUDIO
    TITLE "2:cjc091_2707"
    INDEX 01 00:13:12
  TRACK 10 AUDIO
    TITLE "0:"
    INDEX 01 00:14:27
  TRACK 11 AUDIO
    TITLE "3:cjc091_2708"
    INDEX 01 00:14:45
  TRACK 12 AUDIO
    TITLE "0:"
    INDEX 01 00:15:48
  TRACK 13 AUDIO
    TITLE "4:cjc091_2709"
    INDEX 01 00:15:72
  TRACK 14 AUDIO
    TITLE "0:"
    INDEX 01 00:20:39
  TRACK 15 AUDIO
    TITLE "2:cjc091_2710"
    INDEX 01 00:21:47
  TRACK 16 AUDIO
    TITLE "0:"
    INDEX 01 00:23:71
  TRACK 17 AUDIO
    TITLE "3:cjc091_2711"
    INDEX 01 00:24:10
  TRACK 18 AUDIO
    TITLE "0:"
    INDEX 01 00:26:05
  TRACK 19 AUDIO
    TITLE "4:cjc091_2712"
    INDEX 01 00:26:22
  TRACK 20 AUDIO
    TITLE "0:"
    INDEX 01 00:30:73
  TRACK 21 AUDIO
    TITLE "2:cjc091_2713"
    INDEX 01 00:32:03
  TRACK 22 AUDIO
    TITLE "0:"
    INDEX 01 00:34:47
  TRACK 23 AUDIO
    TITLE "3:cjc091_2714"
    INDEX 01 00:34:71
  TRACK 24 AUDIO
    TITLE "0:"
    INDEX 01 00:36:56
  TRACK 25 AUDIO
    TITLE "4:cjc091_2715"
    INDEX 01 00:37:08
  TRACK 26 AUDIO
    TITLE "0:"
    INDEX 01 00:40:64
  TRACK 27 AUDIO
    TITLE "2:cjc091_2716"
    INDEX 01 00:42:04
  TRACK 28 AUDIO
    TITLE "0:"
    INDEX 01 00:43:11
  TRACK 29 AUDIO
    TITLE "3:cjc091_2717"
    INDEX 01 00:43:27
  TRACK 30 AUDIO
    TITLE "0:"
    INDEX 01 00:44:34
  TRACK 31 AUDIO
    TITLE "4:cjc091_2718"
    INDEX 01 00:44:58
  TRACK 32 AUDIO
    TITLE "0:"
    INDEX 01 00:48:02
  TRACK 33 AUDIO
    TITLE "2:cjc091_2719"
    INDEX 01 00:49:12
  TRACK 34 AUDIO
    TITLE "0:"
    INDEX 01 00:50:13
  TRACK 35 AUDIO
    TITLE "3:cjc091_2720"
    INDEX 01 00:50:42
  TRACK 36 AUDIO
    TITLE "0:"
    INDEX 01 00:52:32
  TRACK 37 AUDIO
    TITLE "4:cjc091_2721"
    INDEX 01 00:52:57
  TRACK 38 AUDIO
    TITLE "0:"
    INDEX 01 00:54:68
  TRACK 39 AUDIO
    TITLE "2:cjc091_2722"
    INDEX 01 00:56:10
  TRACK 40 AUDIO
    TITLE "0:"
    INDEX 01 00:57:23
  TRACK 41 AUDIO
    TITLE "3:cjc091_2723"
    INDEX 01 00:57:41
  TRACK 42 AUDIO
    TITLE "0:"
    INDEX 01 00:58:69
  TRACK 43 AUDIO
    TITLE "4:cjc091_2724"
    INDEX 01 00:59:22
  TRACK 44 AUDIO
    TITLE "0:"
    INDEX 01 01:02:38
  TRACK 45 AUDIO
    TITLE "2:cjc091_2725"
    INDEX 01 01:03:51
  TRACK 46 AUDIO
    TITLE "0:"
    INDEX 01 01:05:13
  TRACK 47 AUDIO
    TITLE "3:cjc091_2726"
    INDEX 01 01:05:28
  TRACK 48 AUDIO
    TITLE "0:"
    INDEX 01 01:06:55
  TRACK 49 AUDIO
    TITLE "4:cjc091_2727"
    INDEX 01 01:07:10
  TRACK 50 AUDIO
    TITLE "0:"
    INDEX 01 01:11:09
  TRACK 51 AUDIO
    TITLE "2:cjc091_2728"
    INDEX 01 01:12:24
  TRACK 52 AUDIO
    TITLE "0:"
    INDEX 01 01:13:65
  TRACK 53 AUDIO
    TITLE "3:cjc091_2729"
    INDEX 01 01:14:12
  TRACK 54 AUDIO
    TITLE "0:"
    INDEX 01 01:16:05
  TRACK 55 AUDIO
    TITLE "4:cjc091_2730"
    INDEX 01 01:16:28
  TRACK 56 AUDIO
    TITLE "0:"
    INDEX 01 01:19:05
  TRACK 57 AUDIO
    TITLE "2:cjc091_2731"
    INDEX 01 01:20:22
  TRACK 58 AUDIO
    TITLE "0:"
    INDEX 01 01:21:55
  TRACK 59 AUDIO
    TITLE "3:cjc091_2732"
    INDEX 01 01:22:05
  TRACK 60 AUDIO
    TITLE "0:"
    INDEX 01 01:24:06
  TRACK 61 AUDIO
    TITLE "4:cjc091_2733"
    INDEX 01 01:24:32
  TRACK 62 AUDIO
    TITLE "0:"
    INDEX 01 01:27:22
  TRACK 63 AUDIO
    TITLE "2:cjc091_2734"
    INDEX 01 01:28:31
  TRACK 64 AUDIO
    TITLE "0:"
    INDEX 01 01:29:68
  TRACK 65 AUDIO
    TITLE "3:cjc091_2735"
    INDEX 01 01:30:20
  TRACK 66 AUDIO
    TITLE "0:"
    INDEX 01 01:32:19
  TRACK 67 AUDIO
    TITLE "4:cjc091_2736"
    INDEX 01 01:32:39
  TRACK 68 AUDIO
    TITLE "0:"
    INDEX 01 01:34:55
  TRACK 69 AUDIO
    TITLE "2:cjc091_2737"
    INDEX 01 01:35:69
  TRACK 70 AUDIO
    TITLE "0:"
    INDEX 01 01:38:53
  TRACK 71 AUDIO
    TITLE "3:cjc091_2738"
    INDEX 01 01:39:02
  TRACK 72 AUDIO
    TITLE "0:"
    INDEX 01 01:41:50
  TRACK 73 AUDIO
    TITLE "4:cjc091_2739"
    INDEX 01 01:41:73
  TRACK 74 AUDIO
    TITLE "0:"
    INDEX 01 01:44:58
  TRACK 75 AUDIO
    TITLE "2:cjc091_2740"
    INDEX 01 01:45:71
  TRACK 76 AUDIO
    TITLE "0:"
    INDEX 01 01:47:37
  TRACK 77 AUDIO
    TITLE "3:cjc091_2741"
    INDEX 01 01:47:58
  TRACK 78 AUDIO
    TITLE "0:"
    INDEX 01 01:49:51
  TRACK 79 AUDIO
    TITLE "4:cjc091_2742"
    INDEX 01 01:50:00
  TRACK 80 AUDIO
    TITLE "0:"
    INDEX 01 01:54:09
  TRACK 81 AUDIO
    TITLE "2:cjc091_2743"
    INDEX 01 01:55:24
  TRACK 82 AUDIO
    TITLE "0:"
    INDEX 01 01:56:51
  TRACK 83 AUDIO
    TITLE "3:cjc091_2744"
    INDEX 01 01:56:71
  TRACK 84 AUDIO
    TITLE "0:"
    INDEX 01 01:58:48
  TRACK 85 AUDIO
    TITLE "4:cjc091_2745"
    INDEX 01 01:58:68
  TRACK 86 AUDIO
    TITLE "0:"
    INDEX 01 02:02:58
  TRACK 87 AUDIO
    TITLE "2:cjc091_2746"
    INDEX 01 02:03:73
  TRACK 88 AUDIO
    TITLE "0:"
    INDEX 01 02:05:74
  TRACK 89 AUDIO
    TITLE "3:cjc091_2747"
    INDEX 01 02:06:18
  TRACK 90 AUDIO
    TITLE "0:"
    INDEX 01 02:08:07
  TRACK 91 AUDIO
    TITLE "4:cjc091_2748"
    INDEX 01 02:08:27
  TRACK 92 AUDIO
    TITLE "0:"
    INDEX 01 02:11:25
